<mxfile host="app.diagrams.net" modified="2024-01-24T01:07:21.975Z" agent="Mozilla/5.0 (Windows NT 10.0; Win64; x64; rv:121.0) Gecko/20100101 Firefox/121.0" version="22.1.20" etag="IRU02ySHAcZybuGQJzD5" type="github">
  <diagram name="Страница — 1" id="gDffIkhXitt4IxSf_JEv">
    <mxGraphModel>
      <root>
        <mxCell id="0" />
        <mxCell id="1" parent="0" />
      </root>
    </mxGraphModel>
  </diagram>
</mxfile>
